<mxfile host="app.diagrams.net" modified="2021-06-26T23:38:02.428Z" agent="5.0 (Windows NT 10.0; Win64; x64) AppleWebKit/537.36 (KHTML, like Gecko) Chrome/91.0.4472.114 Safari/537.36" etag="UjuysVZe_XPt7h9Rqk5Q" version="14.8.1" type="github">
  <diagram id="prtHgNgQTEPvFCAcTncT" name="Page-1">
    <mxGraphModel dx="1209" dy="671" grid="0" gridSize="10" guides="1" tooltips="1" connect="1" arrows="1" fold="1" page="1" pageScale="1" pageWidth="583" pageHeight="827" background="#EFEDE3" math="0" shadow="0">
      <root>
        <mxCell id="0" />
        <mxCell id="1" parent="0" />
        <mxCell id="QlnHmGiDCUwm2XnyN2Vu-2" value="&lt;font style=&quot;font-size: 24px&quot; color=&quot;#7ea6e0&quot;&gt;Medico&lt;/font&gt;" style="ellipse;whiteSpace=wrap;html=1;fillColor=#FFFDE0;strokeColor=#7EA6E0;" vertex="1" parent="1">
          <mxGeometry x="230" y="160" width="180" height="100" as="geometry" />
        </mxCell>
        <mxCell id="QlnHmGiDCUwm2XnyN2Vu-4" value="&lt;font style=&quot;font-size: 24px&quot; color=&quot;#7ea6e0&quot;&gt;Paciente&lt;/font&gt;" style="ellipse;whiteSpace=wrap;html=1;fillColor=#FFFDE0;strokeColor=#7EA6E0;" vertex="1" parent="1">
          <mxGeometry x="450" y="314" width="180" height="100" as="geometry" />
        </mxCell>
        <mxCell id="QlnHmGiDCUwm2XnyN2Vu-6" value="&lt;font color=&quot;#7ea6e0&quot;&gt;&lt;span style=&quot;font-size: 24px&quot;&gt;Consulta&lt;/span&gt;&lt;/font&gt;" style="ellipse;whiteSpace=wrap;html=1;fillColor=#FFFDE0;strokeColor=#7EA6E0;" vertex="1" parent="1">
          <mxGeometry x="450" y="518" width="180" height="100" as="geometry" />
        </mxCell>
        <mxCell id="QlnHmGiDCUwm2XnyN2Vu-7" value="&lt;font style=&quot;font-size: 24px&quot; color=&quot;#7ea6e0&quot;&gt;Especialidad&lt;/font&gt;" style="ellipse;whiteSpace=wrap;html=1;fillColor=#FFFDE0;strokeColor=#7EA6E0;" vertex="1" parent="1">
          <mxGeometry x="20" y="290" width="180" height="100" as="geometry" />
        </mxCell>
        <mxCell id="QlnHmGiDCUwm2XnyN2Vu-9" value="" style="endArrow=classic;html=1;exitX=0;exitY=1;exitDx=0;exitDy=0;entryX=0.5;entryY=0;entryDx=0;entryDy=0;strokeWidth=3;strokeColor=#7EA6E0;" edge="1" parent="1" source="QlnHmGiDCUwm2XnyN2Vu-2" target="QlnHmGiDCUwm2XnyN2Vu-7">
          <mxGeometry relative="1" as="geometry">
            <mxPoint x="520" y="330" as="sourcePoint" />
            <mxPoint x="620" y="330" as="targetPoint" />
          </mxGeometry>
        </mxCell>
        <mxCell id="QlnHmGiDCUwm2XnyN2Vu-10" value="&lt;font style=&quot;font-size: 18px&quot; color=&quot;#a6740f&quot;&gt;Tiene asignada una&amp;nbsp;&lt;/font&gt;" style="edgeLabel;resizable=0;html=1;align=center;verticalAlign=middle;" connectable="0" vertex="1" parent="QlnHmGiDCUwm2XnyN2Vu-9">
          <mxGeometry relative="1" as="geometry">
            <mxPoint x="2" y="-3" as="offset" />
          </mxGeometry>
        </mxCell>
        <mxCell id="QlnHmGiDCUwm2XnyN2Vu-11" value="" style="endArrow=classic;html=1;strokeColor=#7EA6E0;strokeWidth=3;exitX=1;exitY=1;exitDx=0;exitDy=0;entryX=0.5;entryY=0;entryDx=0;entryDy=0;" edge="1" parent="1" source="QlnHmGiDCUwm2XnyN2Vu-2" target="QlnHmGiDCUwm2XnyN2Vu-4">
          <mxGeometry relative="1" as="geometry">
            <mxPoint x="520" y="330" as="sourcePoint" />
            <mxPoint x="620" y="330" as="targetPoint" />
          </mxGeometry>
        </mxCell>
        <mxCell id="QlnHmGiDCUwm2XnyN2Vu-14" value="&lt;span style=&quot;color: rgb(166 , 116 , 15) ; font-size: 18px&quot;&gt;Se dedica a atender&lt;/span&gt;" style="edgeLabel;resizable=0;html=1;align=center;verticalAlign=middle;" connectable="0" vertex="1" parent="1">
          <mxGeometry x="469.9997462042124" y="279.99647682674373" as="geometry">
            <mxPoint x="-8" y="-4" as="offset" />
          </mxGeometry>
        </mxCell>
        <mxCell id="QlnHmGiDCUwm2XnyN2Vu-15" value="" style="endArrow=classic;html=1;strokeColor=#7EA6E0;strokeWidth=3;exitX=0.5;exitY=1;exitDx=0;exitDy=0;" edge="1" parent="1" source="QlnHmGiDCUwm2XnyN2Vu-4" target="QlnHmGiDCUwm2XnyN2Vu-6">
          <mxGeometry width="50" height="50" relative="1" as="geometry">
            <mxPoint x="580" y="390" as="sourcePoint" />
            <mxPoint x="590" y="300" as="targetPoint" />
          </mxGeometry>
        </mxCell>
        <mxCell id="QlnHmGiDCUwm2XnyN2Vu-16" value="&lt;font style=&quot;font-size: 18px&quot; color=&quot;#a6740f&quot;&gt;Se le da una&lt;/font&gt;" style="edgeLabel;resizable=0;html=1;align=center;verticalAlign=middle;" connectable="0" vertex="1" parent="1">
          <mxGeometry x="579.9997462042124" y="439.99647682674373" as="geometry">
            <mxPoint x="-25" y="-4" as="offset" />
          </mxGeometry>
        </mxCell>
        <mxCell id="QlnHmGiDCUwm2XnyN2Vu-17" value="&lt;b&gt;&lt;font color=&quot;#7ea6e0&quot;&gt;Medicina General&lt;/font&gt;&lt;/b&gt;" style="rounded=1;whiteSpace=wrap;html=1;fillColor=#FFE6CC;strokeColor=#7EA6E0;" vertex="1" parent="1">
          <mxGeometry x="130" y="404" width="80" height="36" as="geometry" />
        </mxCell>
        <mxCell id="QlnHmGiDCUwm2XnyN2Vu-18" value="&lt;b&gt;&lt;font color=&quot;#7ea6e0&quot;&gt;Medicina&amp;nbsp;&lt;br&gt;Interna&lt;br&gt;&lt;/font&gt;&lt;/b&gt;" style="rounded=1;whiteSpace=wrap;html=1;fillColor=#FFE6CC;strokeColor=#7EA6E0;" vertex="1" parent="1">
          <mxGeometry x="130" y="450" width="80" height="36" as="geometry" />
        </mxCell>
        <mxCell id="QlnHmGiDCUwm2XnyN2Vu-19" value="&lt;font color=&quot;#7ea6e0&quot;&gt;&lt;b&gt;Ginecología&lt;/b&gt;&lt;/font&gt;" style="rounded=1;whiteSpace=wrap;html=1;fillColor=#FFE6CC;strokeColor=#7EA6E0;" vertex="1" parent="1">
          <mxGeometry x="130" y="500" width="80" height="36" as="geometry" />
        </mxCell>
        <mxCell id="QlnHmGiDCUwm2XnyN2Vu-20" value="&lt;b&gt;&lt;font color=&quot;#7ea6e0&quot;&gt;Oncología&lt;/font&gt;&lt;/b&gt;" style="rounded=1;whiteSpace=wrap;html=1;fillColor=#FFE6CC;strokeColor=#7EA6E0;" vertex="1" parent="1">
          <mxGeometry x="130" y="550" width="80" height="36" as="geometry" />
        </mxCell>
        <mxCell id="QlnHmGiDCUwm2XnyN2Vu-21" value="&lt;b&gt;&lt;font color=&quot;#7ea6e0&quot;&gt;Cardiología&lt;/font&gt;&lt;/b&gt;" style="rounded=1;whiteSpace=wrap;html=1;fillColor=#FFE6CC;strokeColor=#7EA6E0;" vertex="1" parent="1">
          <mxGeometry x="130" y="600" width="80" height="36" as="geometry" />
        </mxCell>
        <mxCell id="QlnHmGiDCUwm2XnyN2Vu-22" value="" style="endArrow=classic;html=1;strokeColor=#7EA6E0;strokeWidth=3;exitX=0.459;exitY=0.996;exitDx=0;exitDy=0;exitPerimeter=0;entryX=0;entryY=0.5;entryDx=0;entryDy=0;" edge="1" parent="1" source="QlnHmGiDCUwm2XnyN2Vu-7" target="QlnHmGiDCUwm2XnyN2Vu-21">
          <mxGeometry width="50" height="50" relative="1" as="geometry">
            <mxPoint x="540" y="360" as="sourcePoint" />
            <mxPoint x="590" y="310" as="targetPoint" />
            <Array as="points">
              <mxPoint x="100" y="618" />
            </Array>
          </mxGeometry>
        </mxCell>
        <mxCell id="QlnHmGiDCUwm2XnyN2Vu-23" value="" style="endArrow=classic;html=1;strokeColor=#7EA6E0;strokeWidth=3;entryX=0;entryY=0.5;entryDx=0;entryDy=0;" edge="1" parent="1" target="QlnHmGiDCUwm2XnyN2Vu-17">
          <mxGeometry width="50" height="50" relative="1" as="geometry">
            <mxPoint x="100" y="422" as="sourcePoint" />
            <mxPoint x="590" y="310" as="targetPoint" />
          </mxGeometry>
        </mxCell>
        <mxCell id="QlnHmGiDCUwm2XnyN2Vu-24" value="" style="endArrow=classic;html=1;strokeColor=#7EA6E0;strokeWidth=3;entryX=0;entryY=0.5;entryDx=0;entryDy=0;" edge="1" parent="1" target="QlnHmGiDCUwm2XnyN2Vu-18">
          <mxGeometry width="50" height="50" relative="1" as="geometry">
            <mxPoint x="100" y="468" as="sourcePoint" />
            <mxPoint x="590" y="310" as="targetPoint" />
          </mxGeometry>
        </mxCell>
        <mxCell id="QlnHmGiDCUwm2XnyN2Vu-25" value="" style="endArrow=classic;html=1;strokeColor=#7EA6E0;strokeWidth=3;entryX=0;entryY=0.556;entryDx=0;entryDy=0;entryPerimeter=0;" edge="1" parent="1" target="QlnHmGiDCUwm2XnyN2Vu-19">
          <mxGeometry width="50" height="50" relative="1" as="geometry">
            <mxPoint x="100" y="520" as="sourcePoint" />
            <mxPoint x="590" y="310" as="targetPoint" />
          </mxGeometry>
        </mxCell>
        <mxCell id="QlnHmGiDCUwm2XnyN2Vu-26" value="" style="endArrow=classic;html=1;strokeColor=#7EA6E0;strokeWidth=3;entryX=0;entryY=0.5;entryDx=0;entryDy=0;" edge="1" parent="1" target="QlnHmGiDCUwm2XnyN2Vu-20">
          <mxGeometry width="50" height="50" relative="1" as="geometry">
            <mxPoint x="100" y="568" as="sourcePoint" />
            <mxPoint x="590" y="310" as="targetPoint" />
          </mxGeometry>
        </mxCell>
        <mxCell id="QlnHmGiDCUwm2XnyN2Vu-28" value="" style="edgeStyle=orthogonalEdgeStyle;rounded=0;orthogonalLoop=1;jettySize=auto;html=1;strokeColor=#7EA6E0;strokeWidth=3;" edge="1" parent="1" source="QlnHmGiDCUwm2XnyN2Vu-27" target="QlnHmGiDCUwm2XnyN2Vu-2">
          <mxGeometry relative="1" as="geometry" />
        </mxCell>
        <mxCell id="QlnHmGiDCUwm2XnyN2Vu-27" value="&lt;font color=&quot;#7ea6e0&quot;&gt;&lt;span style=&quot;font-size: 24px&quot;&gt;Hospital&lt;/span&gt;&lt;/font&gt;" style="ellipse;whiteSpace=wrap;html=1;strokeColor=#7EA6E0;fillColor=#FFFDE0;" vertex="1" parent="1">
          <mxGeometry x="250" y="10" width="140" height="90" as="geometry" />
        </mxCell>
        <mxCell id="QlnHmGiDCUwm2XnyN2Vu-29" value="&lt;font style=&quot;font-size: 18px&quot; color=&quot;#a6740f&quot;&gt;Contrata&lt;/font&gt;" style="edgeLabel;resizable=0;html=1;align=center;verticalAlign=middle;" connectable="0" vertex="1" parent="1">
          <mxGeometry x="329.0005593319582" y="118.00092357784621" as="geometry">
            <mxPoint x="3" y="1" as="offset" />
          </mxGeometry>
        </mxCell>
        <mxCell id="QlnHmGiDCUwm2XnyN2Vu-30" value="" style="endArrow=classic;html=1;strokeColor=#7EA6E0;strokeWidth=3;entryX=0;entryY=0;entryDx=0;entryDy=0;" edge="1" parent="1" target="QlnHmGiDCUwm2XnyN2Vu-7">
          <mxGeometry width="50" height="50" relative="1" as="geometry">
            <mxPoint x="300" y="120" as="sourcePoint" />
            <mxPoint x="590" y="300" as="targetPoint" />
            <Array as="points">
              <mxPoint x="46" y="120" />
            </Array>
          </mxGeometry>
        </mxCell>
        <mxCell id="QlnHmGiDCUwm2XnyN2Vu-31" value="&lt;b&gt;&lt;font color=&quot;#7ea6e0&quot;&gt;Hospital Dalinde&lt;/font&gt;&lt;/b&gt;" style="rounded=1;whiteSpace=wrap;html=1;fillColor=#FFE6CC;strokeColor=#7EA6E0;" vertex="1" parent="1">
          <mxGeometry x="140" y="37" width="80" height="36" as="geometry" />
        </mxCell>
        <mxCell id="QlnHmGiDCUwm2XnyN2Vu-32" value="" style="endArrow=classic;html=1;strokeColor=#7EA6E0;strokeWidth=3;exitX=0;exitY=0.5;exitDx=0;exitDy=0;entryX=1;entryY=0.5;entryDx=0;entryDy=0;" edge="1" parent="1" source="QlnHmGiDCUwm2XnyN2Vu-27" target="QlnHmGiDCUwm2XnyN2Vu-31">
          <mxGeometry width="50" height="50" relative="1" as="geometry">
            <mxPoint x="540" y="350" as="sourcePoint" />
            <mxPoint x="590" y="300" as="targetPoint" />
          </mxGeometry>
        </mxCell>
        <mxCell id="QlnHmGiDCUwm2XnyN2Vu-34" value="&lt;b&gt;&lt;font color=&quot;#7ea6e0&quot;&gt;Adulto joven&lt;br&gt;&lt;/font&gt;&lt;/b&gt;" style="rounded=1;whiteSpace=wrap;html=1;fillColor=#FFE6CC;strokeColor=#7EA6E0;" vertex="1" parent="1">
          <mxGeometry x="650" y="378" width="80" height="36" as="geometry" />
        </mxCell>
        <mxCell id="QlnHmGiDCUwm2XnyN2Vu-35" value="&lt;b&gt;&lt;font color=&quot;#7ea6e0&quot;&gt;Niño&lt;br&gt;&lt;/font&gt;&lt;/b&gt;" style="rounded=1;whiteSpace=wrap;html=1;fillColor=#FFE6CC;strokeColor=#7EA6E0;" vertex="1" parent="1">
          <mxGeometry x="650" y="330" width="80" height="36" as="geometry" />
        </mxCell>
        <mxCell id="QlnHmGiDCUwm2XnyN2Vu-36" value="&lt;b&gt;&lt;font color=&quot;#7ea6e0&quot;&gt;Adulto mayor&lt;br&gt;&lt;/font&gt;&lt;/b&gt;" style="rounded=1;whiteSpace=wrap;html=1;fillColor=#FFE6CC;strokeColor=#7EA6E0;" vertex="1" parent="1">
          <mxGeometry x="650" y="280" width="80" height="36" as="geometry" />
        </mxCell>
        <mxCell id="QlnHmGiDCUwm2XnyN2Vu-37" value="&lt;b&gt;&lt;font color=&quot;#7ea6e0&quot;&gt;Mujer&lt;br&gt;&lt;/font&gt;&lt;/b&gt;" style="rounded=1;whiteSpace=wrap;html=1;fillColor=#FFE6CC;strokeColor=#7EA6E0;" vertex="1" parent="1">
          <mxGeometry x="650" y="230" width="80" height="36" as="geometry" />
        </mxCell>
        <mxCell id="QlnHmGiDCUwm2XnyN2Vu-38" value="&lt;b&gt;&lt;font color=&quot;#7ea6e0&quot;&gt;Hombre&lt;br&gt;&lt;/font&gt;&lt;/b&gt;" style="rounded=1;whiteSpace=wrap;html=1;fillColor=#FFE6CC;strokeColor=#7EA6E0;" vertex="1" parent="1">
          <mxGeometry x="650" y="180" width="80" height="36" as="geometry" />
        </mxCell>
        <mxCell id="QlnHmGiDCUwm2XnyN2Vu-39" value="&lt;b&gt;&lt;font color=&quot;#7ea6e0&quot;&gt;Embarazada&lt;br&gt;&lt;/font&gt;&lt;/b&gt;" style="rounded=1;whiteSpace=wrap;html=1;fillColor=#FFE6CC;strokeColor=#7EA6E0;" vertex="1" parent="1">
          <mxGeometry x="650" y="430" width="80" height="36" as="geometry" />
        </mxCell>
        <mxCell id="QlnHmGiDCUwm2XnyN2Vu-40" value="" style="endArrow=classic;html=1;strokeColor=#7EA6E0;strokeWidth=3;exitX=1;exitY=0.5;exitDx=0;exitDy=0;entryX=0;entryY=0.5;entryDx=0;entryDy=0;" edge="1" parent="1" source="QlnHmGiDCUwm2XnyN2Vu-4" target="QlnHmGiDCUwm2XnyN2Vu-38">
          <mxGeometry width="50" height="50" relative="1" as="geometry">
            <mxPoint x="540" y="380" as="sourcePoint" />
            <mxPoint x="590" y="330" as="targetPoint" />
            <Array as="points">
              <mxPoint x="630" y="198" />
            </Array>
          </mxGeometry>
        </mxCell>
        <mxCell id="QlnHmGiDCUwm2XnyN2Vu-41" value="" style="endArrow=classic;html=1;strokeColor=#7EA6E0;strokeWidth=3;exitX=1;exitY=0.5;exitDx=0;exitDy=0;entryX=0;entryY=0.5;entryDx=0;entryDy=0;" edge="1" parent="1" source="QlnHmGiDCUwm2XnyN2Vu-4" target="QlnHmGiDCUwm2XnyN2Vu-39">
          <mxGeometry width="50" height="50" relative="1" as="geometry">
            <mxPoint x="540" y="380" as="sourcePoint" />
            <mxPoint x="590" y="330" as="targetPoint" />
            <Array as="points">
              <mxPoint x="630" y="448" />
            </Array>
          </mxGeometry>
        </mxCell>
        <mxCell id="QlnHmGiDCUwm2XnyN2Vu-42" value="" style="endArrow=classic;html=1;strokeColor=#7EA6E0;strokeWidth=3;entryX=0;entryY=0.5;entryDx=0;entryDy=0;" edge="1" parent="1" target="QlnHmGiDCUwm2XnyN2Vu-34">
          <mxGeometry width="50" height="50" relative="1" as="geometry">
            <mxPoint x="630" y="396" as="sourcePoint" />
            <mxPoint x="590" y="330" as="targetPoint" />
          </mxGeometry>
        </mxCell>
        <mxCell id="QlnHmGiDCUwm2XnyN2Vu-43" value="" style="endArrow=classic;html=1;strokeColor=#7EA6E0;strokeWidth=3;entryX=0;entryY=0.5;entryDx=0;entryDy=0;" edge="1" parent="1" target="QlnHmGiDCUwm2XnyN2Vu-35">
          <mxGeometry width="50" height="50" relative="1" as="geometry">
            <mxPoint x="630" y="348" as="sourcePoint" />
            <mxPoint x="590" y="330" as="targetPoint" />
          </mxGeometry>
        </mxCell>
        <mxCell id="QlnHmGiDCUwm2XnyN2Vu-44" value="" style="endArrow=classic;html=1;strokeColor=#7EA6E0;strokeWidth=3;entryX=0;entryY=0.5;entryDx=0;entryDy=0;" edge="1" parent="1" target="QlnHmGiDCUwm2XnyN2Vu-36">
          <mxGeometry width="50" height="50" relative="1" as="geometry">
            <mxPoint x="630" y="300" as="sourcePoint" />
            <mxPoint x="590" y="330" as="targetPoint" />
          </mxGeometry>
        </mxCell>
        <mxCell id="QlnHmGiDCUwm2XnyN2Vu-45" value="" style="endArrow=classic;html=1;strokeColor=#7EA6E0;strokeWidth=3;entryX=0;entryY=0.5;entryDx=0;entryDy=0;" edge="1" parent="1" target="QlnHmGiDCUwm2XnyN2Vu-37">
          <mxGeometry width="50" height="50" relative="1" as="geometry">
            <mxPoint x="630" y="248" as="sourcePoint" />
            <mxPoint x="590" y="330" as="targetPoint" />
          </mxGeometry>
        </mxCell>
        <mxCell id="QlnHmGiDCUwm2XnyN2Vu-46" value="&lt;b&gt;&lt;font color=&quot;#7ea6e0&quot;&gt;Seguimiento tratamiento&lt;/font&gt;&lt;/b&gt;" style="rounded=1;whiteSpace=wrap;html=1;fillColor=#FFE6CC;strokeColor=#7EA6E0;" vertex="1" parent="1">
          <mxGeometry x="660" y="610" width="80" height="36" as="geometry" />
        </mxCell>
        <mxCell id="QlnHmGiDCUwm2XnyN2Vu-47" value="&lt;b&gt;&lt;font color=&quot;#7ea6e0&quot;&gt;Urgencia&lt;/font&gt;&lt;/b&gt;" style="rounded=1;whiteSpace=wrap;html=1;fillColor=#FFE6CC;strokeColor=#7EA6E0;" vertex="1" parent="1">
          <mxGeometry x="660" y="550" width="80" height="36" as="geometry" />
        </mxCell>
        <mxCell id="QlnHmGiDCUwm2XnyN2Vu-48" value="&lt;b&gt;&lt;font color=&quot;#7ea6e0&quot;&gt;Revisión&lt;/font&gt;&lt;/b&gt;" style="rounded=1;whiteSpace=wrap;html=1;fillColor=#FFE6CC;strokeColor=#7EA6E0;" vertex="1" parent="1">
          <mxGeometry x="660" y="490" width="80" height="36" as="geometry" />
        </mxCell>
        <mxCell id="QlnHmGiDCUwm2XnyN2Vu-49" value="" style="endArrow=classic;html=1;strokeColor=#7EA6E0;strokeWidth=3;exitX=1;exitY=0.5;exitDx=0;exitDy=0;entryX=0;entryY=0.5;entryDx=0;entryDy=0;" edge="1" parent="1" source="QlnHmGiDCUwm2XnyN2Vu-6" target="QlnHmGiDCUwm2XnyN2Vu-48">
          <mxGeometry width="50" height="50" relative="1" as="geometry">
            <mxPoint x="540" y="370" as="sourcePoint" />
            <mxPoint x="590" y="320" as="targetPoint" />
            <Array as="points">
              <mxPoint x="630" y="508" />
            </Array>
          </mxGeometry>
        </mxCell>
        <mxCell id="QlnHmGiDCUwm2XnyN2Vu-50" value="" style="endArrow=classic;html=1;strokeColor=#7EA6E0;strokeWidth=3;exitX=1;exitY=0.5;exitDx=0;exitDy=0;entryX=0;entryY=0.5;entryDx=0;entryDy=0;" edge="1" parent="1" source="QlnHmGiDCUwm2XnyN2Vu-6" target="QlnHmGiDCUwm2XnyN2Vu-46">
          <mxGeometry width="50" height="50" relative="1" as="geometry">
            <mxPoint x="540" y="370" as="sourcePoint" />
            <mxPoint x="590" y="320" as="targetPoint" />
            <Array as="points">
              <mxPoint x="630" y="628" />
            </Array>
          </mxGeometry>
        </mxCell>
        <mxCell id="QlnHmGiDCUwm2XnyN2Vu-51" value="" style="endArrow=classic;html=1;strokeColor=#7EA6E0;strokeWidth=3;entryX=0;entryY=0.5;entryDx=0;entryDy=0;" edge="1" parent="1" target="QlnHmGiDCUwm2XnyN2Vu-47">
          <mxGeometry width="50" height="50" relative="1" as="geometry">
            <mxPoint x="630" y="568" as="sourcePoint" />
            <mxPoint x="590" y="320" as="targetPoint" />
          </mxGeometry>
        </mxCell>
      </root>
    </mxGraphModel>
  </diagram>
</mxfile>
